<svg xmlns="http://www.w3.org/2000/svg" width="1440" height="810" viewBox="0 0 1440 810" role="img" aria-labelledby="title desc">
  <title id="title">Job Map View placeholder</title>
  <desc id="desc">A stylized geospatial employment analytics placeholder for future project screenshots.</desc>
  <defs><linearGradient id="map" x1="0" x2="1" y1="0" y2="1"><stop stop-color="#dbeafe"/><stop offset="1" stop-color="#ecfeff"/></linearGradient></defs>
  <rect width="1440" height="810" fill="#0e0e18"/>
  <rect x="58" y="54" width="1324" height="702" rx="34" fill="#f8fafc"/>
  <rect x="58" y="54" width="1324" height="72" rx="34" fill="#e2e8f0"/>
  <circle cx="104" cy="90" r="10" fill="#fb7185"/><circle cx="136" cy="90" r="10" fill="#facc15"/><circle cx="168" cy="90" r="10" fill="#22c55e"/>
  <rect x="94" y="164" width="820" height="556" rx="24" fill="url(#map)" stroke="#cbd5e1" stroke-width="3"/>
  <path d="M214 584 C312 492 282 354 420 286 S642 328 784 214" fill="none" stroke="#94a3b8" stroke-width="4" stroke-dasharray="14 14"/>
  <path d="M282 220 C396 296 478 516 746 594" fill="none" stroke="#cbd5e1" stroke-width="4" stroke-dasharray="14 14"/>
  <g><circle cx="312" cy="470" r="18" fill="#2563eb"/><circle cx="492" cy="352" r="26" fill="#7c3aed"/><circle cx="686" cy="520" r="22" fill="#22c55e"/><circle cx="738" cy="282" r="15" fill="#22d3ee"/></g>
  <rect x="950" y="164" width="396" height="168" rx="24" fill="#ede9fe"/>
  <rect x="950" y="360" width="396" height="168" rx="24" fill="#cffafe"/>
  <rect x="950" y="556" width="396" height="164" rx="24" fill="#dcfce7"/>
  <text x="988" y="224" fill="#111827" font-family="monospace" font-size="24" font-weight="700">Regional Demand</text>
  <text x="988" y="420" fill="#111827" font-family="monospace" font-size="24" font-weight="700">Skill Analytics</text>
  <text x="988" y="616" fill="#111827" font-family="monospace" font-size="24" font-weight="700">Industry Trends</text>
</svg>
