<svg xmlns="http://www.w3.org/2000/svg" width="1440" height="810" viewBox="0 0 1440 810" role="img" aria-labelledby="title desc">
  <title id="title">Offline POS and Inventory placeholder</title>
  <desc id="desc">A stylized point of sale interface placeholder for future project screenshots.</desc>
  <rect width="1440" height="810" fill="#0e0e18"/>
  <rect x="58" y="54" width="1324" height="702" rx="34" fill="#f8fafc"/>
  <rect x="58" y="54" width="1324" height="72" rx="34" fill="#e2e8f0"/>
  <circle cx="104" cy="90" r="10" fill="#fb7185"/><circle cx="136" cy="90" r="10" fill="#facc15"/><circle cx="168" cy="90" r="10" fill="#22c55e"/>
  <rect x="94" y="164" width="320" height="556" rx="24" fill="#111827"/>
  <g fill="#ffffff" opacity=".12"><rect x="128" y="232" width="252" height="48" rx="14"/><rect x="128" y="302" width="252" height="48" rx="14"/><rect x="128" y="372" width="252" height="48" rx="14"/><rect x="128" y="442" width="252" height="48" rx="14"/></g>
  <g fill="#ffffff" stroke="#cbd5e1" stroke-width="3"><rect x="454" y="164" width="270" height="250" rx="24"/><rect x="752" y="164" width="270" height="250" rx="24"/><rect x="1050" y="164" width="296" height="250" rx="24"/><rect x="454" y="442" width="270" height="278" rx="24"/><rect x="752" y="442" width="270" height="278" rx="24"/><rect x="1050" y="442" width="296" height="278" rx="24"/></g>
  <g fill="#dbeafe"><rect x="488" y="198" width="202" height="112" rx="18"/><rect x="786" y="198" width="202" height="112" rx="18"/><rect x="1084" y="198" width="228" height="112" rx="18"/></g>
  <g fill="#7c3aed"><rect x="488" y="344" width="120" height="18" rx="9"/><rect x="786" y="344" width="120" height="18" rx="9"/><rect x="1084" y="344" width="120" height="18" rx="9"/></g>
  <text x="128" y="210" fill="#fff" font-family="monospace" font-size="26" font-weight="700">OFFLINE POS</text>
</svg>
