<svg xmlns="http://www.w3.org/2000/svg" width="1440" height="810" viewBox="0 0 1440 810" role="img" aria-labelledby="title desc">
  <title id="title">Payroll Management System placeholder</title>
  <desc id="desc">A stylized payroll dashboard placeholder for future project screenshots.</desc>
  <rect width="1440" height="810" fill="#0e0e18"/>
  <rect x="58" y="54" width="1324" height="702" rx="34" fill="#f8fafc"/>
  <rect x="58" y="54" width="1324" height="72" rx="34" fill="#e2e8f0"/>
  <circle cx="104" cy="90" r="10" fill="#fb7185"/><circle cx="136" cy="90" r="10" fill="#facc15"/><circle cx="168" cy="90" r="10" fill="#22c55e"/>
  <rect x="94" y="164" width="250" height="556" rx="24" fill="#111827"/>
  <rect x="382" y="164" width="294" height="142" rx="24" fill="#ede9fe"/>
  <rect x="706" y="164" width="294" height="142" rx="24" fill="#cffafe"/>
  <rect x="1030" y="164" width="316" height="142" rx="24" fill="#dcfce7"/>
  <rect x="382" y="342" width="964" height="378" rx="24" fill="#ffffff" stroke="#cbd5e1" stroke-width="3"/>
  <g fill="#cbd5e1"><rect x="424" y="396" width="400" height="18" rx="9"/><rect x="424" y="466" width="760" height="16" rx="8"/><rect x="424" y="526" width="820" height="16" rx="8"/><rect x="424" y="586" width="680" height="16" rx="8"/><rect x="424" y="646" width="750" height="16" rx="8"/></g>
  <g fill="#7c3aed"><rect x="1160" y="458" width="120" height="30" rx="15"/><rect x="1160" y="578" width="120" height="30" rx="15"/></g>
  <text x="118" y="216" fill="#fff" font-family="monospace" font-size="24" font-weight="700">PAYROLL</text>
  <text x="420" y="230" fill="#111827" font-family="monospace" font-size="28" font-weight="700">Dashboard Preview</text>
</svg>
